<svg width="67" height="37" viewBox="0 0 67 37" fill="none" xmlns="http://www.w3.org/2000/svg">
<path fill-rule="evenodd" clip-rule="evenodd" d="M43.6562 0H4C1.79089 0 0 1.79083 0 4V25.8552C0 28.0643 1.79089 29.8552 4 29.8552H14.7844C16.5603 29.8552 18 31.2948 18 33.0707C18 35.8077 21.2015 37.2935 23.2916 35.5264L28.8818 30.8005C29.6039 30.1901 30.5188 29.8552 31.4642 29.8552H43.3914L51.7216 15.1818L43.6562 0ZM54.702 29.8552H63C63.3387 29.8552 63.6676 29.813 63.9817 29.7338L59.3011 20.9489L54.702 29.8552ZM67 15.2476V15.1129L66.963 15.1818L67 15.2476ZM63.8062 0.0812988C63.5458 0.0280151 63.2761 0 63 0H54.9869L59.3011 9.1676L63.8062 0.0812988Z" fill="#FF9E6D"/>
</svg>
